<svg xmlns="http://www.w3.org/2000/svg" xmlns:xlink="http://www.w3.org/1999/xlink" viewBox="0 0 1024 1024" version="1.1" width="128" height="128" style="&#10;    fill: green;&#10;"><path d="M604.25 378.73c-5.59 1.08-11.27 1.81-16.88 2.18l-6.61 0.43 2.48 6.14c2.22 5.5 4.23 11.13 5.97 16.72l6.43 20.5-4.79 1.49a264.48 264.48 0 0 1-16.51 4.52l-5.76-18.61-4.86 2.01c-4.96 2.06-10.81 4.13-17.39 6.17l-26.69 8.36c-6.07 1.88-13.08 3.8-20.84 5.7l-4.95 1.21 7.28 23.41 4.75-1.79c7.97-2.99 14.83-5.39 20.39-7.12l1.21-0.37L550 522.21c-8.26 4.84-16.82 9.28-25.48 13.22l-5.98 2.72 4.43 4.86c3.79 4.16 7.21 8.67 10.17 13.39l2.62 4.19 26.04-17.47c10.1-6.86 17.64-11.73 22.41-14.47 4.97-2.86 11.28-6.54 18.75-10.94l3.3-1.95a99.322 99.322 0 0 1-4.23 12.27 105.105 105.105 0 0 1-16.92 25.59l-4.91 5.52 7.05 2.26 0.55 0.14a34.718 34.718 0 0 1 14.58 6.6l4.21 3.25 2.8-4.52c5.35-8.64 10.14-17.74 14.24-27.1a136.11 136.11 0 0 0 8.65-28.96c1.98-11.8 2.02-23.77 0.12-35.51-1.8-12.11-4.28-24.23-7.39-36.09l23.22-7.21c6.95 27.32 13.16 53.84 18.46 78.89l0.05 0.22a4.62 4.62 0 0 1-2.04 5.08 71.562 71.562 0 0 1-19.53 7.14l-10.61 2.21 8.77 6.36c4.55 3.3 8.3 7.67 10.86 12.65l2.06 4 4.12-1.8c7.61-3.33 14.91-7.39 21.7-12.09l0.22-0.16c7.84-6.11 11.46-15.96 9.45-25.71l-0.04-0.17c-11.64-47.63-18.25-74.92-19.64-81.11-1.39-6.18-2.88-12.71-4.48-19.59l-1.17-5.02-47.9 14.89c-2.09-6.86-3.96-13.29-5.57-19.17l-0.05-0.17c-1.57-5-2.57-10.18-2.99-15.39l-0.43-5.34-5.22 1.01z m-7.04 115.3l-4.71 2.98c-4.93 3.11-9.01 5.66-12.49 7.77l-8.05 4.89-20.89-67.38 2.62-0.82c4.94-1.54 10-2.91 15.06-4.08l5.75 18.58 4.83-1.95c5.44-2.19 11.06-4.2 16.69-5.96l6.07-1.86c2.63 9.94 4.79 20.08 6.46 30.21 1.46 9.07 1.54 18.28 0.23 27.36a99.93 99.93 0 0 1-2.34 11.36l-9.23-21.1zM428.92 426.42l-1.83 4.23c-1.75 4.04-3.8 7.96-6.11 11.65l-3.19 5.25 5.69 1.82c8.1 3.34 15.92 7.39 23.33 12.07-2.19 0.7-4.34 1.38-6.43 2.03l-16.52 5.13c-3.33-9.52-6.04-19.3-8.06-29.14l-0.97-4.73-4.73 1.01c-5.43 1.16-11.12 2.4-17.06 3.72l-5.35 1.18 1.88 5.14c3.03 8.26 6.56 18.15 10.75 30.13l-74.96 23.34 1.61 4.67c5.06 14.64 9.83 29.57 14.21 44.42 3.49 11.32 6.33 23 8.43 34.6 1.24 7.7 1.78 15.58 1.59 23.43a72.65 72.65 0 0 1-5.68 24.43l-2.68 6.31 6.84 0.35c5.29 0.27 10.5 1.34 15.47 3.17l4.6 1.69 1.59-4.63c4.61-13.44 6.4-27.44 5.31-41.7-0.02-0.16-0.03-0.31-0.05-0.47l2.41 2.18c3.99 3.6 7.23 7.86 9.64 12.66l1.9 3.79 3.99-1.43c6.71-2.4 13.11-5.54 19.1-9.36-1.74 1.74-3.53 3.43-5.37 5.07l-6.41 5.72 8.24 2.45c4.63 1.37 8.96 3.83 12.51 7.1l3.58 3.3 3.24-3.64a225.008 225.008 0 0 0 30.64-44.03c4.58 4.39 9.57 8.34 14.89 11.77 6.56 4.5 14.22 7.26 22.15 7.99 6.73 0.87 13.48-1.23 18.52-5.8l0.19-0.18c3.35-3.38 6.24-10.81 2.34-40.27l-0.52-3.92-3.95-0.23c-5.62-0.33-11.1-1.56-16.3-3.67l-8.09-3.28 1.57 8.58c2.28 12.42 2.79 18.37 2.82 21.15-1.29-0.41-3.3-1.21-6.34-2.81a77.41 77.41 0 0 1-17.3-13.21c3.61-11.61 6.38-23.56 8.22-35.57l0.03-0.23a96.88 96.88 0 0 1 5.84-24.49l2.18-5.7-6.06-0.76c-6.35-0.8-12.6-2.37-18.59-4.66l-5.22-2a1010.6 1010.6 0 0 1 23.74-6.68l4.81-1.29-7.19-23.21-4.7 1.67c-2.98 1.06-5.91 2.08-8.78 3.07 1.09-1.73 2.23-3.42 3.4-5.09l3.06-4.34-4.64-2.6a255.32 255.32 0 0 0-32.95-15.48l-4.28-1.67zM409.21 520l-1.02-5.25-47.44 14.7-4.99-16.09 53.01-16.48c4.36 11.72 9.49 23.22 15.26 34.18a217.54 217.54 0 0 0 17.96 29.45 102.34 102.34 0 0 1-12.05 22.82l-0.08 0.12c-2.25 3.42-4.67 6.73-7.24 9.92 1.36-4.39 1.19-9.98-0.52-16.71l-6.82-29.6c-2.33-9.16-4.37-18.27-6.07-27.06z m-28.23 69.5l-4.91 1.32a228.477 228.477 0 0 0-8.39-39.41l22.32-6.92 6.28 24.41 0.18 0.55a26.78 26.78 0 0 1 1.52 13.83c-1.11 0.82-4.91 2.98-17 6.22z m74.2-100.85c0.43 14.31-0.84 28.58-3.78 42.58a269.327 269.327 0 0 1-19.79-41.54l15.4-4.78c2.54-0.79 5.2-1.61 7.99-2.44l0.18 6.18z"/><path d="M276.34 367.95l17.25 17.77 8.99-23.27 23.66-11.29-20.49-14.56-3.2-24.49-21.32 14.4-23.98-3.2 6.87 23.25-12.62 23.04zM360.98 296.77l20.13-15.36 25.92 2.17-10.24-22.64 10.24-22.64-25.92 2.16-19.89-15.19-5.82 22.24-22.49 12.62 22.83 12.5zM389.64 757.59l-17.96-17.96-8 23.47-22.34 11.17 20.21 15.42 4.26 24.51 20.16-14.33 24.72 4.3-8.01-24.56 11.28-22.56zM290.1 469.43l-0.82 4.17 22.74 4.01 0.75-4.06C330.33 378.21 414.12 309.01 512 309.01c46.74 0 92.42 16.46 128.64 46.36l3.3 2.73 14.08-18.1-3.15-2.57c-40.1-32.76-90.84-50.81-142.87-50.81-107.65-0.01-200.98 76.88-221.9 182.81zM488.82 227.78c-0.34 1.65-0.78 3.95-1.32 6.83-0.91 4.92-1.77 9.85-1.77 9.85l-1.13 6.52 24.38-6.89 23.38 12.22v-24.64l18.19-16.59-24.56-9.08-12.16-22.21-14.33 19.1-25.89 3.24 15.5 20.3c-0.1 0.44-0.2 0.89-0.29 1.35z"/><path d="M512 150.63c-96.56 0-187.32 37.58-255.56 105.81-68.24 68.24-105.82 159-105.82 255.56s37.58 187.32 105.82 255.56S415.43 873.37 512 873.37s187.32-37.58 255.56-105.81c68.23-68.23 105.81-158.99 105.81-255.57-0.42-96.56-38.22-187.31-106.45-255.54C698.69 188.21 608.15 150.63 512 150.63zM805.36 662.4l-26.62-1.04-18.34-15.64-6.85 24.26-22.34 13.3 21.26 13.29 4.27 24.53 20.37-15.54 10.86 0.94c-30.17 42.6-69.77 78.09-114.92 102.91-2.18 1.2-4.38 2.38-6.59 3.53l5.59-22.36L695.03 778l-22.98-12.58-5.82-23.31-19.14 15.4-25.86-2.15L631.47 778l-10.24 22.64 25.86-2.16 18.5 14.9c-47.12 24.35-99.89 37.18-153.16 37.18-90.01 0-174.61-35.03-238.22-98.63s-98.63-148.21-98.63-238.22 35.03-174.61 98.63-238.21 148.2-98.63 238.22-98.63c56.26 0 110.4 13.68 158.63 39.47l-19.38 13.77-24.71-4.29 8.01 24.56-11.27 22.54 25.15-0.54 17.97 17.96 8-23.46 22.5-11.26-21.24-15.39-4.06-23.37c28.56 15.4 55.04 35.06 78.62 58.64 63.6 63.6 98.63 148.2 98.63 238.21 0 63.3-17.92 125.3-51.89 179.87l-2.96-8.28 10.93-22.9z"/><path d="M711.24 549.6C693.32 645.44 609.53 715 512 715c-46.83 0-92.51-16.47-128.63-46.36l-3.18-2.64-14.32 17.05 3.27 2.67c40.09 32.77 90.83 50.81 142.87 50.81 107.66 0 200.98-76.88 221.9-182.81l0.82-4.17-22.73-4.01-0.76 4.06z"/><path d="M512 82C274.9 82 82 274.9 82 512s192.9 430 430 430 430-192.9 430-430S749.11 82 512 82z m393.12 430.01c0 52.88-10.43 104.25-30.99 152.7-19.86 46.78-48.26 88.83-84.42 125s-78.22 64.57-125 84.42c-48.45 20.57-99.82 30.99-152.7 30.99s-104.25-10.43-152.7-30.99c-46.78-19.86-88.83-48.26-125-84.42-36.16-36.16-64.57-78.22-84.43-125-20.57-48.45-30.99-99.82-30.99-152.7s10.43-104.25 30.99-152.7c19.86-46.78 48.26-88.83 84.43-125 36.16-36.16 78.22-64.57 125-84.43 48.45-20.57 99.82-30.99 152.7-30.99 216.76 0 393.11 176.35 393.11 393.12z"/><path d="M543.95 778.63l-24.2 6.83-22.57-12.36v24.8l-18.19 16.58 24.49 9.05 11.22 22.45 14.5-19.33 24.46-3.19-13.43-20.42z"/></svg>